<?xml version="1.0" encoding="UTF-8" standalone="no"?>
<!-- Created with Inkscape (http://www.inkscape.org/) -->

<svg
   width="210mm"
   height="297mm"
   viewBox="0 0 210 297"
   version="1.1"
   id="svg5"
   xml:space="preserve"
   inkscape:export-filename="logo.svg"
   inkscape:export-xdpi="96"
   inkscape:export-ydpi="96"
   xmlns:inkscape="http://www.inkscape.org/namespaces/inkscape"
   xmlns:sodipodi="http://sodipodi.sourceforge.net/DTD/sodipodi-0.dtd"
   xmlns="http://www.w3.org/2000/svg"
   xmlns:svg="http://www.w3.org/2000/svg"><sodipodi:namedview
     id="namedview7"
     pagecolor="#ffffff"
     bordercolor="#000000"
     borderopacity="0.25"
     inkscape:showpageshadow="2"
     inkscape:pageopacity="0.0"
     inkscape:pagecheckerboard="0"
     inkscape:deskcolor="#d1d1d1"
     inkscape:document-units="mm"
     showgrid="false" /><defs
     id="defs2" /><g
     inkscape:label="Layer 1"
     inkscape:groupmode="layer"
     id="layer1"><path
       style="fill:#000000;stroke-width:0.264583"
       d="m 43.642756,227.46828 c -2.072571,-0.68981 -2.23461,-0.79297 -3.500448,-2.22856 -0.796499,-0.90331 -0.992187,-1.33569 -0.992187,-2.19226 0,-1.24033 0.08423,-1.33187 3.704166,-4.02544 1.382448,-1.02867 2.573073,-1.94236 2.645833,-2.03044 0.07276,-0.0881 0.549011,-0.5017 1.058334,-0.91917 7.467491,-6.12084 12.49741,-11.92901 18.582303,-21.45744 2.335397,-3.65704 2.24319,-3.33487 1.334219,-4.66169 -1.152948,-1.68294 -1.728594,-2.89738 -3.322365,-7.00918 -1.268166,-3.27178 -1.841542,-4.99287 -3.251625,-9.76038 -0.850498,-2.87555 -2.042176,-9.85397 -2.507594,-14.68438 -0.147222,-1.52797 -0.456536,-4.53863 -0.687364,-6.69035 -0.33524,-3.12503 -0.360571,-4.32289 -0.125891,-5.95313 0.161586,-1.12249 0.412324,-3.55055 0.557189,-5.39568 0.144867,-1.84513 0.383344,-3.63107 0.529952,-3.96875 0.146606,-0.33768 0.434311,-1.32834 0.639344,-2.20146 0.954927,-4.06654 2.929451,-9.72975 3.736084,-10.71563 0.178596,-0.21828 0.831836,-1.32917 1.451644,-2.46864 0.619808,-1.13948 1.570442,-2.63287 2.11252,-3.31865 0.542079,-0.68578 1.151147,-1.55716 1.353487,-1.93641 0.949738,-1.78013 6.952392,-7.99194 11.456262,-11.85546 1.441937,-1.23693 2.930218,-2.53201 3.307292,-2.87797 0.652436,-0.5986 2.484254,-2.034187 4.430331,-3.472027 0.492395,-0.3638 1.280012,-1.27171 1.750258,-2.01758 2.591094,-4.10978 4.682085,-6.44749 8.065852,-9.017538 3.775114,-2.86729 9.262788,-5.40416 14.088098,-6.512724 6.56382,-1.507969 7.12051,-1.611283 14.68437,-2.725182 0.43657,-0.06429 1.4486,-0.171127 2.24896,-0.237416 0.80037,-0.06629 2.11005,-0.182636 2.91042,-0.258548 0.80036,-0.07591 3.12208,-0.245009 5.15937,-0.375772 2.03729,-0.130765 4.73751,-0.370078 6.00047,-0.531809 1.26297,-0.161732 3.16797,-0.348224 4.23334,-0.414428 1.06536,-0.0662 2.47281,-0.181774 3.12765,-0.256823 0.65484,-0.07505 1.94396,-0.197908 2.8647,-0.273021 0.92074,-0.07511 1.92062,-0.268523 2.22197,-0.4298 0.30135,-0.161276 1.57208,-0.344178 2.82385,-0.406447 1.25177,-0.06227 2.51406,-0.16106 2.80511,-0.219528 0.29104,-0.05847 1.24354,-0.242967 2.11666,-0.409998 0.87313,-0.167031 2.42094,-0.524327 3.43959,-0.793988 1.01864,-0.269661 2.44739,-0.567415 3.17499,-0.661675 0.72761,-0.09426 2.98146,-0.515943 5.00855,-0.937078 2.0271,-0.421134 3.75131,-0.700021 3.83159,-0.619746 0.1976,0.197598 -1.13952,3.900934 -3.14502,8.710559 -1.73816,4.168465 -3.67879,9.576395 -4.55739,12.700002 -0.80012,2.84461 -1.74739,6.62696 -1.90222,7.59537 -0.0766,0.479207 -0.32672,1.760407 -0.55578,2.847107 -0.53813,2.55299 -1.11489,20.49977 -0.67581,21.02883 0.28541,0.34389 0.18004,2.17808 -0.52211,9.08901 -0.38534,3.79263 -0.63793,5.40107 -1.4626,9.31363 -0.38341,1.81901 -0.85464,4.0812 -1.04719,5.02709 -0.74129,3.64151 -4.65016,13.03868 -6.51013,15.65078 -0.27524,0.38653 -0.50043,0.7958 -0.50043,0.90949 0,0.11369 -0.45088,0.75016 -1.00195,1.41436 -0.55107,0.66421 -1.47229,1.8625 -2.04715,2.66287 -4.08885,5.69283 -13.99665,14.20938 -21.42485,18.41639 -1.45521,0.82416 -3.38706,1.95873 -4.293,2.52125 -0.90594,0.56253 -1.71221,1.02277 -1.79173,1.02277 -0.0795,0 -1.12422,0.46374 -2.32159,1.03053 -1.19736,0.56679 -2.65327,1.20952 -3.23535,1.42828 -0.58208,0.21877 -2.48708,0.955 -4.23333,1.63608 -1.74625,0.68107 -3.47266,1.34657 -3.83646,1.47889 -1.79246,0.65192 -5.48281,1.57766 -8.33437,2.09073 -1.74625,0.3142 -3.770316,0.69198 -4.497921,0.83951 -0.727604,0.14754 -1.561041,0.31174 -1.852083,0.36489 -2.150435,0.39271 -8.850621,0.63163 -11.509374,0.41041 -5.517883,-0.45912 -11.206826,-1.84001 -12.993507,-3.15395 -1.204942,-0.88613 -1.558576,-1.00996 -1.558576,-0.54577 0,0.15837 -0.368631,1.0811 -0.819176,2.05052 -0.450549,0.96942 -1.234882,2.77462 -1.742964,4.01155 -1.199679,2.92062 -5.377466,11.29119 -6.365507,12.75386 -0.422339,0.62522 -1.215903,2.0294 -1.763477,3.1204 -1.080995,2.15379 -4.174479,7.40524 -4.984517,8.46162 -0.888029,1.1581 -1.998601,1.71726 -4.563951,2.29792 -0.291611,0.066 -1.601761,0.16307 -2.911448,0.21569 -1.918211,0.0771 -2.716694,-0.016 -4.106323,-0.47847 z m 27.78748,-37.82267 c 0.218802,-0.17727 1.148961,-1.21528 2.067017,-2.30669 6.807062,-8.09239 15.502945,-17.15303 19.760157,-20.58901 1.018645,-0.82215 2.030677,-1.64057 2.248958,-1.81871 1.559332,-1.27263 4.563032,-3.56198 5.434132,-4.14178 0.57649,-0.38371 1.34582,-0.92291 1.70962,-1.19822 1.02197,-0.77341 5.85759,-3.87356 6.74687,-4.32547 0.43657,-0.22184 2.07142,-1.0765 3.633,-1.89922 2.79518,-1.47264 4.61729,-2.15012 8.27325,-3.07607 1.01865,-0.258 2.2337,-0.59029 2.70012,-0.73843 1.51287,-0.4805 7.60043,-0.20135 10.26446,0.47068 1.30969,0.33039 2.67891,0.7571 3.04271,0.94824 0.80458,0.42273 2.4334,0.94987 2.55605,0.82723 0.0489,-0.0489 -0.23826,-0.25672 -0.63822,-0.46171 -0.39996,-0.205 -1.32252,-0.73724 -2.05012,-1.18275 -2.5307,-1.54957 -6.18021,-3.01366 -8.93036,-3.58264 -5.22381,-1.08076 -12.47572,-0.28861 -17.26339,1.88574 -4.05796,1.84296 -7.33149,3.19612 -7.44861,3.079 -0.14558,-0.14558 0.35839,-1.10821 0.99471,-1.9 0.2339,-0.29104 0.96204,-1.48167 1.61808,-2.64583 1.01745,-1.80547 2.45871,-4.1504 6.61403,-10.76101 0.88636,-1.41009 2.68741,-4.12337 7.48221,-11.27193 2.03729,-3.0374 4.26298,-6.40678 4.94597,-7.48751 1.11508,-1.76443 3.7597,-5.64698 7.86484,-11.54628 0.78856,-1.1332 1.5327,-2.10004 1.65365,-2.14855 0.12095,-0.0485 0.21991,-0.20528 0.21991,-0.34838 0,-0.1431 0.31426,-0.6722 0.69836,-1.17578 0.38409,-0.50357 0.60592,-1.00164 0.49294,-1.10682 -0.11298,-0.10518 -0.2628,-0.0297 -0.33294,0.16773 -0.0701,0.19743 -1.51236,1.86822 -3.20492,3.71286 -1.69257,1.84464 -3.22025,3.52857 -3.39485,3.74207 -0.17459,0.2135 -0.71914,0.86443 -1.21011,1.44652 -0.49096,0.58208 -2.19116,2.66567 -3.77822,4.6302 -1.58705,1.96454 -3.03683,3.69094 -3.22173,3.83646 -0.18489,0.14552 -0.78262,0.87513 -1.32828,1.62135 -0.54567,0.74622 -2.05379,2.6206 -3.35138,4.16528 -1.29759,1.54468 -2.84541,3.4482 -3.43958,4.23003 -0.59418,0.78183 -2.17476,2.83652 -3.5124,4.56597 -1.33764,1.72945 -3.15689,4.09695 -4.04277,5.26112 -1.83813,2.41556 -7.944949,11.45109 -7.944949,11.75519 0,0.11074 -0.255519,0.42815 -0.567822,0.70537 -0.312301,0.27721 -0.515496,0.38496 -0.451543,0.23944 0.06395,-0.14552 0.379687,-0.84159 0.70163,-1.54682 1.443788,-3.1627 2.73046,-7.63401 3.133314,-10.8886 0.0721,-0.58208 0.22911,-1.83223 0.34901,-2.77812 0.58642,-4.62621 -0.532498,-8.86509 -3.265054,-12.36927 -1.071446,-1.374 -1.724795,-1.82218 -1.349994,-0.92604 1.079759,2.58166 1.272961,3.71622 1.295339,7.60677 0.01892,3.28846 -0.08341,4.42227 -0.596955,6.61458 -0.602523,2.57215 -1.537333,5.91131 -2.333239,8.33438 -1.096748,3.33894 -6.932808,15.56183 -9.664284,20.24062 -3.870394,6.62966 -5.623343,9.54246 -6.050687,10.05417 -0.24306,0.29104 -0.796534,1.18401 -1.229945,1.98437 -0.433409,0.80037 -1.283131,2.15956 -1.888268,3.02043 -0.605139,0.86087 -1.100251,1.67152 -1.100251,1.80145 0,0.12993 -0.347832,0.67574 -0.772956,1.21291 -0.763503,0.96472 -2.70074,4.65096 -3.050881,5.80531 -0.203137,0.66971 0.247967,0.79609 0.914371,0.25617 z"
       id="path191" /></g></svg>
